PathFileType	4	(X/Y/Z)	G:\TennisProject\Miami_Dimitrov_Sinner_masked_Sports2D\Miami_Dimitrov_Sinner_masked_Sports2D_px_person02.trc
DataRate	CameraRate	NumFrames	NumMarkers	Units	OrigDataRate	OrigDataStartFrame	OrigNumFrames
25	25	11	22	m	25	62	499
Frame#	Time	Hip			RHip			RKnee			RAnkle			RBigToe			RSmallToe			RHeel			LHip			LKnee			LAnkle			LBigToe			LSmallToe			LHeel			Neck			Head			Nose			RShoulder			RElbow			RWrist			LShoulder			LElbow			LWrist		
		X1	Y1	Z1	X2	Y2	Z2	X3	Y3	Z3	X4	Y4	Z4	X5	Y5	Z5	X6	Y6	Z6	X7	Y7	Z7	X8	Y8	Z8	X9	Y9	Z9	X10	Y10	Z10	X11	Y11	Z11	X12	Y12	Z12	X13	Y13	Z13	X14	Y14	Z14	X15	Y15	Z15	X16	Y16	Z16	X17	Y17	Z17	X18	Y18	Z18	X19	Y19	Z19	X20	Y20	Z20	X21	Y21	Z21	X22	Y22	Z22
62	2.48	1327.724938975679	174.06362678660454	0.0	1321.894794457623	175.10503017600422	0.0	1319.8300196294185	195.7540641025517	0.0	1317.1014663946282	217.45275628708623	0.0	1316.7286777906468	222.14117401498723	0.0	1314.1852793548323	221.87847872430692	0.0	1317.639987342521	220.20460334102728	0.0	1332.5179383618497	175.3930052835691	0.0	1332.5188971550738	195.7632582316618	0.0	1332.3840635870113	217.82883022202947	0.0	1333.5022932264883	221.95722744247033	0.0	1335.7485476606023	221.8870030384097	0.0	1330.6191004807301	220.82531758424682	0.0	1328.6576216340982	143.30592664504607	0.0	1328.8533865045938	129.74430177113706	0.0	1328.8524024154967	137.0823150501053	0.0	1318.7126319606227	148.91623433342113	0.0	1315.703489544467	162.1440948890138	0.0	1322.7221508306452	168.2581311008142	0.0	1338.1578057865468	149.1920238919111	0.0	1339.359719312331	162.06793190382115	0.0	1332.5319371682472	167.77981536315556	0.0
63	2.52	1327.7583158823775	173.9271655327195	0.0	1321.976645877114	174.94368181314465	0.0	1319.8410797395313	195.75846043269956	0.0	1317.2589037192467	217.52808577515466	0.0	1316.9245065508317	222.06311186492715	0.0	1314.1840273512773	221.77904378293252	0.0	1317.6227707295393	220.21474783119302	0.0	1332.6042492430813	175.2726103929373	0.0	1332.5922636211162	195.815914423786	0.0	1332.4053164717602	217.80227410885357	0.0	1333.4289535954774	221.91511486943355	0.0	1335.7696779603843	221.67171385602654	0.0	1330.6564757343226	220.704459899278	0.0	1328.6333285294088	143.38392552016916	0.0	1328.8991607730886	129.75486220786297	0.0	1328.7808637029893	137.19978688276302	0.0	1318.7494583978294	148.9053962424943	0.0	1315.8590204999111	162.0189134780931	0.0	1322.773929996689	168.15270896815423	0.0	1338.2275716994588	149.18583653272057	0.0	1339.4460832182008	162.0786053821471	0.0	1332.606360839958	167.74760932347513	0.0
64	2.56	1327.8482665413267	173.88403436265244	0.0	1322.0130228530247	174.7598544926907	0.0	1319.9062301831586	195.80373014599888	0.0	1317.373150365777	217.59678210238351	0.0	1316.9374851595799	222.04290946787637	0.0	1314.262261419312	221.6977080646328	0.0	1317.5620099434368	220.24750453396376	0.0	1332.7120923974203	175.12809425810002	0.0	1332.7113423679207	195.9004143938169	0.0	1332.479740182946	217.8272099350756	0.0	1333.4088561925691	221.85292149540427	0.0	1335.8238548122574	221.47307595047334	0.0	1330.627959429234	220.60220915570096	0.0	1328.711920284344	143.41439440555172	0.0	1328.9990091231577	129.80032010241646	0.0	1328.7761290975873	137.3354437396522	0.0	1318.863039280388	148.91608966620828	0.0	1315.962804723306	161.91142999864013	0.0	1322.7946203048125	168.10731654338178	0.0	1338.3516340206236	149.17915090307383	0.0	1339.6860597467016	161.942732171521	0.0	1332.710200564997	167.66963090242203	0.0
65	2.6	1327.8227809610066	174.02624355006276	0.0	1321.9251518097394	174.90978946112563	0.0	1319.9189819668986	195.81372441275786	0.0	1317.2180624579992	217.5467032535411	0.0	1316.7552537933716	222.10890687712075	0.0	1314.2741405185632	221.69355655908262	0.0	1317.5811582075014	220.13249542990152	0.0	1332.6467972499274	175.24045021173484	0.0	1332.6484276453057	195.87689001150954	0.0	1332.45968326468	217.81853196005656	0.0	1333.480319130806	221.9291860639904	0.0	1335.8172686320681	221.58689949363713	0.0	1330.5900465467878	220.7181796644986	0.0	1328.6802134215616	143.27495088301367	0.0	1328.9616911957391	129.80268260417304	0.0	1328.8432598146362	137.23510002648476	0.0	1318.829283320223	148.9182344079112	0.0	1315.8183835206655	162.02255588216127	0.0	1322.7376628351697	168.2610243983916	0.0	1338.2741243337143	149.1978621291294	0.0	1339.6136718396867	161.9627383848292	0.0	1332.6461509489338	167.72462025408117	0.0
66	2.64	1327.7351260853084	174.1301122186835	0.0	1321.8918429375053	175.07691686749524	0.0	1319.8407122827641	195.75035511591676	0.0	1317.1123491860478	217.44590890726317	0.0	1316.7397383889852	222.09338026081895	0.0	1314.2099138901194	221.73499199755724	0.0	1317.6510708964404	220.06095721104785	0.0	1332.5302146789402	175.3782877240909	0.0	1332.5285748101185	195.8395782674049	0.0	1332.3819193241627	217.81105589184799	0.0	1333.4960279923944	222.02000993841574	0.0	1335.7594744674993	221.73085050473145	0.0	1330.6154408970601	220.80582090392963	0.0	1328.6572854650024	143.2122371424993	0.0	1328.8634224205368	129.76179045281606	0.0	1328.84689807756	137.09940405240445	0.0	1318.723468757537	148.91789945154616	0.0	1315.7005268361193	162.14093698327056	0.0	1322.7321276825305	168.35195534467593	0.0	1338.1668086075233	149.1945608113149	0.0	1339.3687098856647	162.1556452061927	0.0	1332.528300029997	167.77801139799323	0.0
67	2.68	1327.7579385154831	174.0503990837626	0.0	1321.987775989682	174.9321092020018	0.0	1319.7782525211592	195.70116544700505	0.0	1317.2788643102438	217.425991721912	0.0	1316.9458376574382	221.99462041506646	0.0	1314.2122362093269	221.79100827715257	0.0	1317.6443596355275	220.2298726282419	0.0	1332.5811831045191	175.25648630523125	0.0	1332.582190565134	195.89302707106816	0.0	1332.394384394006	217.8321201436942	0.0	1333.4176120660331	221.93943266652587	0.0	1335.7533252070032	221.5995859499208	0.0	1330.6480976486778	220.67494188303303	0.0	1328.837502923434	143.34696667419604	0.0	1328.896529646201	129.74668121846702	0.0	1328.7814012391882	137.17665503173896	0.0	1318.7666259615694	148.9375804648967	0.0	1315.8020524827195	162.03677737888768	0.0	1322.7972842884203	168.19962924511663	0.0	1338.2867002140854	149.1395406518531	0.0	1339.4222734749399	162.1566778002061	0.0	1332.5810447351487	167.66022284607743	0.0
68	2.72	1327.8410836147168	173.95375692018018	0.0	1322.020824003123	174.81336668475578	0.0	1319.802501558116	195.724055526269	0.0	1317.3911636004668	217.4658704705746	0.0	1317.0359884276763	221.99237647356813	0.0	1314.285510148041	221.858379947552	0.0	1317.5788733193624	220.41152267836384	0.0	1332.6804402849664	175.10120926111273	0.0	1332.6923493824563	195.91809515749267	0.0	1332.4633737945273	217.80728796134645	0.0	1333.38972050133	221.80754633105275	0.0	1335.7957145657463	221.44448375760933	0.0	1330.616708029462	220.58006790966604	0.0	1329.0072514368508	143.4414880641881	0.0	1328.9890862628085	129.76228863042368	0.0	1328.7827428777798	137.2790981229441	0.0	1318.8772594274878	148.94878995900055	0.0	1315.8706849753112	161.91428510446926	0.0	1322.8015115913058	168.0610515581559	0.0	1338.4335723386043	149.09480305320787	0.0	1339.6499192339459	161.92878093953843	0.0	1332.693427400098	167.54250832100004	0.0
69	2.7600000000000002	1327.8153673898485	173.98114924007535	0.0	1321.9137001362228	174.9963549208578	0.0	1319.8424030264043	195.73865380827397	0.0	1317.2227859891568	217.45788844550324	0.0	1316.8962502889967	222.11308353718152	0.0	1314.2824879721907	221.90218824345646	0.0	1317.576519306504	220.34232032062738	0.0	1332.6378843959742	175.19177432593386	0.0	1332.6353474603181	195.81600937305123	0.0	1332.4474484055681	217.73139536177604	0.0	1333.4555576128596	221.83801206759074	0.0	1335.7895295113124	221.59262056034757	0.0	1330.5822332624098	220.70624379203812	0.0	1328.8777470899518	143.34408720935306	0.0	1328.9528286881086	129.74992322866044	0.0	1328.82871580003	137.1738430221987	0.0	1318.8327340710923	148.91352278602452	0.0	1315.74676787633	162.00109277965976	0.0	1322.7237458458274	168.1817252387438	0.0	1338.3211646668656	149.1122353488671	0.0	1339.5929469329658	161.84935220872092	0.0	1332.6449010376573	167.62890645070803	0.0
70	2.8000000000000003	1327.7287594718944	174.01227907310476	0.0	1321.8848267754663	175.13760743838736	0.0	1319.8301975762834	195.7271131109131	0.0	1317.1000326036924	217.4317997058253	0.0	1316.809898386392	222.13969530899408	0.0	1314.198389247265	221.8635840434134	0.0	1317.6407263645854	220.18892858729168	0.0	1332.5955392953351	175.34148844840504	0.0	1332.5249593041694	195.71741307566265	0.0	1332.3779630773515	217.69834128675404	0.0	1333.4955293546427	221.92550802639565	0.0	1335.7611072926238	221.75981924302144	0.0	1330.6085683382735	220.80681347773756	0.0	1328.6405778091244	143.24701482005054	0.0	1328.857349995515	129.7093084239348	0.0	1328.7595261387921	137.0506790116302	0.0	1318.7141629101461	148.87916731553628	0.0	1315.6874142766478	162.1094744420254	0.0	1322.71305624061	168.30283118153807	0.0	1338.1689373993802	149.1579838724	0.0	1339.3711118753997	161.99300906280496	0.0	1332.5229728069871	167.7466757332348	0.0
71	2.84	1327.7434552193388	173.96037665333998	0.0	1322.0329622360578	175.00033847902452	0.0	1319.8337260128396	195.79555558131074	0.0	1317.2512977419285	217.47924024442491	0.0	1316.9213015794817	221.99100633319324	0.0	1314.179125414982	221.7772391984352	0.0	1317.6720650032642	220.2159046244166	0.0	1332.7124203411681	175.31150005676454	0.0	1332.5737737276997	195.76587286334578	0.0	1332.385516833235	217.7478942454817	0.0	1333.4792245503927	221.85520083554266	0.0	1335.8174457600944	221.59701639153369	0.0	1330.6239301736177	220.6484954463758	0.0	1328.6770127955526	143.31672818586546	0.0	1328.883911321605	129.6982605532439	0.0	1328.646219316271	137.1351996884519	0.0	1318.739094691508	148.8849322113253	0.0	1315.8525650782317	162.00108235462176	0.0	1322.8335664611832	168.11843318066022	0.0	1338.2745543341455	149.18081378601062	0.0	1339.420451504972	162.1264461749817	0.0	1332.5171435345999	167.66011672838715	0.0
72	2.88	1327.8108532647188	173.95295404300836	0.0	1322.1021679140008	174.88947531028543	0.0	1319.8820732309898	195.907993976213	0.0	1317.3552460572596	217.54933058082895	0.0	1316.9860009613685	221.90574045127758	0.0	1314.233648078979	221.75804337806835	0.0	1317.659932407433	220.30873037327407	0.0	1332.8178969675305	175.27698742290218	0.0	1332.6648076228707	195.89873304948873	0.0	1332.436396977994	217.81123942255482	0.0	1333.4787937061408	221.73282538678592	0.0	1335.8837814041453	221.44163204688513	0.0	1330.5945218794348	220.4690702860972	0.0	1328.8687648358934	143.38537792358733	0.0	1328.9617101031665	129.71263988690276	0.0	1328.6691000526066	137.23515302507377	0.0	1318.8281397108842	148.90026377790375	0.0	1315.948375439439	161.87329023917493	0.0	1322.9519090161584	167.92740066349398	0.0	1338.4102335914267	149.15740173837014	0.0	1339.612729289114	162.2582298930738	0.0	1332.5493949641473	167.51704274404426	0.0
